<svg xmlns="http://www.w3.org/2000/svg" xmlns:xlink="http://www.w3.org/1999/xlink" width="1920" height="404.333" viewBox="0 0 1920 404.333">
  <defs>
    <clipPath id="clip-path">
      <rect id="사각형_119" data-name="사각형 119" width="1433" height="248" transform="translate(0 -0.333)" fill="#fff" stroke="#707070" stroke-width="1"/>
    </clipPath>
  </defs>
  <g id="그룹_227" data-name="그룹 227" transform="translate(-12 -4679.167)">
    <g id="마스크_그룹_1" data-name="마스크 그룹 1" transform="translate(256 4835.5)" opacity="0.45" clip-path="url(#clip-path)">
      <path id="제외_1" data-name="제외 1" d="M169.06,186.835c0-61.225-22.91-90.85-73.865-90.85-32.785,0-53.72,7.11-68.335,24.1V5.53C26.86,1.975,24.885,0,21.33,0H5.53C1.975,0,0,1.975,0,5.53V308.89c0,3.555,1.975,5.53,5.53,5.53h15.8c3.555,0,5.53-1.975,5.53-5.53V176.565c0-36.34,23.7-58.065,66.755-58.065,30.02,0,48.585,17.775,48.585,68.73V308.89c0,3.555,1.975,5.53,5.53,5.53h15.8c3.555,0,5.53-1.975,5.53-5.53ZM361.03,216.46c0,52.14-27.255,81.765-63.99,81.765-13.035,0-23.7-3.16-31.6-9.48-9.085-6.32-13.035-18.565-13.035-31.6,0-21.725,11.06-37.525,33.18-45.425,15.4-5.925,38.315-9.875,67.94-8.69h7.505ZM248.455,133.9c18.96-11.455,39.9-16.195,63.595-16.195,35.155,0,48.98,17.775,48.98,50.955v11.85H355.9c-39.1,0-68.335,3.555-87.295,10.27-31.205,11.455-45.82,35.55-45.82,67.545,0,13.825,4.345,28.44,12.64,39.105,12.245,15.4,32,23.3,58.46,23.3,30.415,0,59.25-15.4,70.31-42.265V308.89c0,3.555,1.975,5.53,5.53,5.53h14.22c3.555,0,5.53-1.975,5.53-5.53-1.185-11.455-1.58-23.3-1.58-39.1V170.64c0-50.56-23.3-75.445-75.84-75.445-24.885,0-45.03,3.555-63.595,13.43-3.555,1.975-5.53,4.74-5.53,8.3v15.01C242.925,134.695,245.69,135.485,248.455,133.9ZM436.475,372.88a89.928,89.928,0,0,0,22.12,2.37,48.079,48.079,0,0,0,33.97-13.43c7.505-7.505,14.615-19.75,20.54-35.155l82.16-220.41c1.185-2.765,0-5.53-3.16-5.53H575.12a7.733,7.733,0,0,0-7.9,5.53l-55.7,153.26L458.2,106.255c-1.58-3.555-4.345-5.53-7.9-5.53H431.735c-3.16,0-4.345,2.765-3.16,5.53l70.31,190.39c-6.715,21.725-14.22,39.5-20.145,47.005-4.74,5.925-14.615,9.48-25.675,9.48a42.012,42.012,0,0,1-14.615-2.37c-3.16-1.185-4.74-.4-4.74,2.765l-1.185,13.43C432.13,370.115,433.315,372.09,436.475,372.88Zm214.88-180.12c.4-17.38,7.505-37.13,16.985-51.35q17.775-23.7,46.215-23.7c18.565,0,32.39,7.9,42.265,23.3,9.085,13.825,13.035,30.02,13.035,51.745Zm133.51,22.515c14.615,0,14.22.395,14.22-13.43,0-31.205-6.715-56.485-20.145-75.05-15.405-20.935-36.34-31.6-65.965-31.6-26.465,0-48.585,10.27-65.965,31.205-16.59,20.54-24.885,47.4-24.885,80.975,0,75.84,33.575,113.365,98.355,113.365,22.12,0,40.685-3.555,58.065-10.27,2.765-1.185,4.345-3.16,4.345-5.53V287.165c0-3.555-1.58-4.345-5.135-2.765-15.8,9.085-34.365,12.64-55.3,12.64-43.055,0-72.285-29.625-71.1-81.765ZM953.53,124.82c2.765,1.185,5.925,0,5.925-3.16V105.07c0-4.345-2.765-6.32-5.925-7.505a71.724,71.724,0,0,0-18.17-2.37q-37.328,0-56.88,49.77v-38.71c0-3.555-1.975-5.53-5.53-5.53H858.335c-3.555,0-5.53,1.975-5.53,5.53.4,13.825.79,23.305.79,42.265V308.89c0,3.555,1.975,5.53,5.53,5.53h15.4c3.555,0,5.53-1.975,5.53-5.53V208.955c0-23.3,3.555-42.66,11.06-57.67,9.48-19.355,24.095-28.835,43.45-28.835Q946.42,122.45,953.53,124.82Zm164.715,91.64c0,52.14-27.255,81.765-63.99,81.765-13.035,0-23.7-3.16-31.6-9.48-9.085-6.32-13.035-18.565-13.035-31.6,0-21.725,11.06-37.525,33.18-45.425,15.405-5.925,38.315-9.875,67.94-8.69h7.505ZM1005.67,133.9c18.96-11.455,39.9-16.195,63.6-16.195,35.155,0,48.98,17.775,48.98,50.955v11.85h-5.135c-39.1,0-68.335,3.555-87.3,10.27C994.61,202.24,980,226.335,980,258.33c0,13.825,4.345,28.44,12.64,39.105,12.245,15.4,31.995,23.3,58.46,23.3,30.415,0,59.25-15.4,70.31-42.265V308.89c0,3.555,1.975,5.53,5.53,5.53h14.22c3.555,0,5.53-1.975,5.53-5.53-1.185-11.455-1.58-23.3-1.58-39.1V170.64c0-50.56-23.305-75.445-75.84-75.445-24.885,0-45.03,3.555-63.6,13.43-3.555,1.975-5.53,4.74-5.53,8.3v15.01C1000.14,134.695,1002.905,135.485,1005.67,133.9Z" transform="translate(143 0)" fill="#edbee1" opacity="0.37"/>
    </g>
    <path id="패스_203" data-name="패스 203" d="M0,0H1920V404.333H0Z" transform="translate(12 4679.167)" fill="#d3bdba" opacity="0.23"/>
  </g>
</svg>
