<svg id="그룹_1" data-name="그룹 1" xmlns="http://www.w3.org/2000/svg" width="68.748" height="68.571" viewBox="0 0 68.748 68.571">
  <path id="패스_1" data-name="패스 1" d="M130.263,461.694c-.03-.224-.053-.448-.07-.671a12.872,12.872,0,0,1,3.767-10.129l16.553-16.552,0,0,.669-.671,1.293-1.293v-.047l-1.253,1.254-.786.784-16.527,16.527a12.877,12.877,0,0,0-3.767,10.129c.017.222.042.447.07.671.006.061.011.123.02.185l.16,1.154h.047l-.16-1.154C130.274,461.817,130.269,461.755,130.263,461.694Z" transform="translate(-119.166 -396.25)" fill="none"/>
  <path id="패스_2" data-name="패스 2" d="M168.068,411.631c.028.224.051.447.068.669a12.868,12.868,0,0,1-3.767,10.131l-16.552,16.552,0,0-.671.669-1.293,1.294v.045l1.254-1.253.786-.786,16.525-16.525a12.873,12.873,0,0,0,3.767-10.131c-.017-.222-.04-.445-.068-.669-.008-.062-.012-.123-.02-.185l-.162-1.155h-.047l.162,1.155C168.056,411.508,168.06,411.568,168.068,411.631Z" transform="translate(-110.415 -408.502)" fill="none"/>
  <path id="패스_3" data-name="패스 3" d="M150.44,438.956l.786.786,1.253,1.253v-.047l-1.293-1.293-.669-.669,0,0L133.96,422.43a12.873,12.873,0,0,1-3.767-10.131c.017-.222.04-.445.07-.669.006-.062.011-.123.02-.185l.16-1.155H130.4l-.16,1.155c-.009.062-.014.123-.02.185-.028.224-.053.447-.07.669a12.879,12.879,0,0,0,3.767,10.131Z" transform="translate(-119.166 -408.502)" fill="none"/>
  <path id="패스_4" data-name="패스 4" d="M169.44,416.279v0l0,0v0c-.216-.028-.433-.055-.657-.072h-.016c-.3-.022-.612-.034-.924-.034l-.02,0c.307,0,.61.011.906.033h0c.226.017.443.044.661.072l0,0c.064.008.132.011.2.02l1.144.171v9.06a13.033,13.033,0,0,1-13.017,13.018h.045a13.034,13.034,0,0,0,13.018-13.018v-9.06l-1.144-.171C169.572,416.29,169.5,416.287,169.44,416.279Z" transform="translate(-103.819 -405.232)" fill="none"/>
  <path id="패스_5" data-name="패스 5" d="M157.716,431.8a13.032,13.032,0,0,1,13.017,13.018v9.06l-1.144.17c-.064.009-.132.014-.2.022h0c-.218.028-.436.056-.661.073h0c-.3.022-.6.031-.906.033h.02c.313,0,.622-.011.924-.033l.016,0c.224-.016.44-.044.657-.072v0h0v0c.064-.008.132-.012.2-.022l1.144-.17v-9.06A13.033,13.033,0,0,0,157.761,431.8Z" transform="translate(-103.819 -396.544)" fill="none"/>
  <path id="패스_6" data-name="패스 6" d="M147.891,434.367l-.786-.784-1.254-1.254v.047l1.293,1.293.671.671,0,0,16.552,16.552a12.867,12.867,0,0,1,3.767,10.129c-.017.222-.04.447-.068.671-.008.061-.012.123-.02.185l-.162,1.154h.047l.162-1.154c.008-.062.012-.125.02-.185.028-.224.051-.448.068-.671a12.872,12.872,0,0,0-3.767-10.129Z" transform="translate(-110.415 -396.25)" fill="none"/>
  <path id="패스_7" data-name="패스 7" d="M168.068,461.677c.028-.224.051-.448.068-.671a12.867,12.867,0,0,0-3.767-10.129l-16.552-16.552,0,0-.671-.671-1.293-1.293V450a13.032,13.032,0,0,0,13.018,13.018h9.017l.162-1.154C168.056,461.8,168.06,461.738,168.068,461.677Z" transform="translate(-110.415 -396.234)" fill="#e2b7d7"/>
  <path id="패스_8" data-name="패스 8" d="M175.032,454.143c.226-.017.443-.045.661-.073h0c.064-.008.132-.012.2-.022l1.144-.17v-9.06A13.032,13.032,0,0,0,164.019,431.8H146.378l2.01,2.01,16.555,16.555a12.924,12.924,0,0,0,9.18,3.81c.307,0,.61-.011.906-.033Z" transform="translate(-110.122 -396.544)" fill="#e098c2"/>
  <path id="패스_9" data-name="패스 9" d="M145.851,423.308v17.641l1.293-1.294.671-.669,0,0L164.37,422.43a12.868,12.868,0,0,0,3.767-10.131c-.017-.222-.04-.445-.068-.669-.008-.062-.012-.123-.02-.185l-.162-1.155h-9.017A13.032,13.032,0,0,0,145.851,423.308Z" transform="translate(-110.415 -408.502)" fill="#e098c2"/>
  <path id="패스_10" data-name="패스 10" d="M177.036,425.53v-9.06l-1.144-.171c-.064-.009-.132-.012-.2-.02l0,0c-.218-.028-.436-.055-.661-.072h0c-.3-.022-.6-.033-.906-.033a12.917,12.917,0,0,0-9.18,3.81l-16.555,16.555-2.01,2.01h17.641A13.033,13.033,0,0,0,177.036,425.53Z" transform="translate(-110.122 -405.232)" fill="#e2b7d7"/>
  <path id="패스_11" data-name="패스 11" d="M152.462,450v-17.64l-1.293,1.293-.669.671,0,0-16.553,16.552a12.872,12.872,0,0,0-3.767,10.129c.017.222.04.447.07.671.006.061.011.123.02.185l.16,1.154h9.018A13.032,13.032,0,0,0,152.462,450Z" transform="translate(-119.149 -396.234)" fill="#e098c2"/>
  <path id="패스_12" data-name="패스 12" d="M152.9,433.81l2.009-2.01H137.273a13.032,13.032,0,0,0-13.017,13.018v9.06l1.142.17c.064.009.132.014.2.022h0c.216.028.436.056.661.073h0c.3.022.6.031.907.033a12.924,12.924,0,0,0,9.18-3.81Z" transform="translate(-122.42 -396.544)" fill="#e2b7d7"/>
  <path id="패스_13" data-name="패스 13" d="M130.246,411.631c-.03.224-.053.447-.07.669a12.873,12.873,0,0,0,3.767,10.131L150.5,438.982l0,0,.669.669,1.293,1.293V423.308a13.032,13.032,0,0,0-13.017-13.017h-9.018l-.16,1.155C130.257,411.508,130.252,411.568,130.246,411.631Z" transform="translate(-119.149 -408.502)" fill="#e2b7d7"/>
  <path id="패스_14" data-name="패스 14" d="M126.26,416.206c-.226.017-.445.044-.661.072l0,0c-.065.008-.134.011-.2.02l-1.142.171v9.06a13.033,13.033,0,0,0,13.017,13.018h17.639l-2.009-2.01-16.555-16.555a12.917,12.917,0,0,0-9.18-3.81q-.462,0-.907.033Z" transform="translate(-122.42 -405.232)" fill="#e098c2"/>
  <path id="패스_15" data-name="패스 15" d="M181.9,409.141H171.527a14.794,14.794,0,0,0-13.495,8.721,10.389,10.389,0,0,0-.582,3.683,10.425,10.425,0,0,0-.582-3.683,14.794,14.794,0,0,0-13.495-8.721h-20.3v20.3a14.8,14.8,0,0,0,9.493,13.82c.145.054.311.114.485.168-.174.055-.341.112-.485.167a14.8,14.8,0,0,0-9.493,13.821v20.3h20.3a14.792,14.792,0,0,0,13.495-8.721,10.418,10.418,0,0,0,.582-3.683,10.382,10.382,0,0,0,.582,3.683,14.792,14.792,0,0,0,13.495,8.721h20.3v-20.3a14.8,14.8,0,0,0-9.493-13.821c-.145-.054-.311-.112-.484-.167.173-.054.339-.114.484-.168a14.8,14.8,0,0,0,9.493-13.82v-20.3Zm-47.846,3.8c.017-.222.042-.445.07-.669.006-.062.011-.123.02-.185l.16-1.155h9.065a13.032,13.032,0,0,1,13.017,13.017v17.686l-1.253-1.253-.786-.786L137.823,423.07A12.879,12.879,0,0,1,134.056,412.939Zm-9.191,16.5v-9.06l1.142-.171c.064-.009.132-.012.2-.02v0l0,0v0c.215-.028.431-.055.655-.072h.016c.3-.022.611-.034.926-.034l.02,0a12.917,12.917,0,0,1,9.18,3.81l16.555,16.555,2.009,2.01H137.882A13.033,13.033,0,0,1,124.865,429.44Zm2.939,37.333q-.471,0-.926-.033l-.016,0c-.224-.016-.44-.044-.655-.072v0h0v0c-.065-.008-.134-.012-.2-.022l-1.142-.17v-9.06A13.032,13.032,0,0,1,137.882,444.4h17.686l-2.009,2.01L137,462.962a12.924,12.924,0,0,1-9.18,3.81Zm6.549,9.152h-.047l-.16-1.154c-.009-.062-.014-.125-.02-.185-.028-.224-.053-.448-.07-.671a12.877,12.877,0,0,1,3.767-10.129l16.527-16.527.786-.784,1.253-1.254v17.686a13.032,13.032,0,0,1-13.017,13.018Zm46.194-64.994h.047l.162,1.155c.008.062.012.123.02.185.028.224.051.447.068.669a12.873,12.873,0,0,1-3.767,10.131L160.552,439.6l-.786.786-1.254,1.253V423.947a13.032,13.032,0,0,1,13.018-13.017Zm.3,62.984c-.017.222-.04.447-.068.671-.008.061-.012.123-.02.185l-.162,1.154h-9.063a13.032,13.032,0,0,1-13.018-13.018V445.22l1.254,1.254.786.784,16.525,16.527A12.872,12.872,0,0,1,180.844,473.914Zm9.192-16.5v9.06l-1.144.17c-.064.009-.132.014-.2.022v0h0v0c-.216.028-.433.056-.657.072l-.016,0c-.3.022-.611.033-.924.033h-.02a12.924,12.924,0,0,1-9.18-3.81l-16.555-16.555-2.01-2.01h17.686A13.033,13.033,0,0,1,190.037,457.415Zm0-27.975a13.034,13.034,0,0,1-13.018,13.018H159.332l2.01-2.01L177.9,423.893a12.917,12.917,0,0,1,9.18-3.81l.02,0c.313,0,.622.012.924.034h.016c.224.017.44.044.657.072v0l0,0v0c.064.008.132.011.2.02l1.144.171Z" transform="translate(-123.076 -409.141)" fill="#b3789f"/>
</svg>
