<svg xmlns="http://www.w3.org/2000/svg" width="141.643" height="35.546" viewBox="0 0 141.643 35.546">
  <g id="그룹_230" data-name="그룹 230" transform="translate(-477.272 -3061.87)">
    <g id="그룹_152" data-name="그룹 152" transform="translate(525.141 3063.985)">
      <path id="패스_162" data-name="패스 162" d="M130.286,469.8c0,.134-.1.234-.334.234-.3,0-1.97-.033-3.406-.033H115.96a4.5,4.5,0,0,0-1.9.667,5.144,5.144,0,0,1-2.572-1.9c-.034-.1.1-.5.234-.467a27.6,27.6,0,0,0,4.14.2l10.352-.034a18.247,18.247,0,0,0,2.4-.935A3.994,3.994,0,0,1,130.286,469.8Zm-2.5,8.315c0,3.206-2.638,5.376-6.512,5.376s-6.512-2.17-6.512-5.376c0-2.905,2.338-4.943,5.811-5.176a.89.89,0,0,0,.1-.4,1.094,1.094,0,0,0-.569-.968c0-.735,2.371,0,2.371.367a5.717,5.717,0,0,1-.334,1C125.51,473.239,127.781,475.242,127.781,478.114Zm-8.715-12.288c-1,0-3.106-1.6-3.306-1.8-.066-.067.167-.668.334-.634a26.186,26.186,0,0,0,4.073.634l4.14.234c.334.033,1.1,1.57.467,1.57Zm6.311,12.321c0-2.237-1.67-3.773-4.108-3.773s-4.107,1.536-4.107,3.773c0,2.271,1.67,3.773,4.107,3.773S125.377,480.418,125.377,478.147Zm14.693-4.073c.434-.1,1.6,2.638.935,2.638l-6.378-.1v5.242a57.189,57.189,0,0,1-.6,9.083,1.631,1.631,0,0,1-1.37.434c-.133-.935-.233-3.84-.233-8.682V462.753c0-.367-2.1-1.536-2.905-1.937-.2-.1.4-.735.7-.735,1.035,0,4.608.768,4.542,1.235a13.585,13.585,0,0,0-.134,1.8v12.222Z" transform="translate(-111.48 -460.082)" fill="#b3789f"/>
      <path id="패스_163" data-name="패스 163" d="M182.767,463.354a13.82,13.82,0,0,0-.133,1.8v15.127a53.757,53.757,0,0,1-.6,8.415,1.631,1.631,0,0,1-1.369.434c-.134-.935-.234-3.84-.234-8.014v-3.105h-.9a5.377,5.377,0,0,0-2.638.667,6.6,6.6,0,0,1-2.137-1.6,6.748,6.748,0,0,1-5.644,2.538c-4.041,0-6.712-2.438-6.712-5.977,0-3.272,2.337-5.644,5.944-5.944a.893.893,0,0,0,.1-.4,1.19,1.19,0,0,0-.567-1.035c0-.768,2.5,0,2.5.4a4.361,4.361,0,0,1-.367,1.035c3.505.367,5.777,2.705,5.777,5.944a5.905,5.905,0,0,1-.668,2.805c1.069,0,1.971.1,3.974.1h1.335v-5.209h-.5a5.374,5.374,0,0,0-2.637.668,6.6,6.6,0,0,1-2.2-1.67c-.133-.134.067-.567.168-.567,1.2,0,2.07.1,4.24.1h.935v-5.543c0-.368-1.4-1.169-2.2-1.57-.2-.1.4-.735.7-.735C179.962,462.019,182.834,462.887,182.767,463.354Zm-9.25,10.185a4.268,4.268,0,0,0-4.474-4.441,4.477,4.477,0,0,0-.067,8.949A4.3,4.3,0,0,0,173.517,473.539Zm14.827-12.222a13.809,13.809,0,0,0-.134,1.8v18.733a57.076,57.076,0,0,1-.6,9.083,1.629,1.629,0,0,1-1.369.434c-.133-.935-.233-3.84-.233-8.682V462.753c0-.367-2.1-1.536-2.905-1.937-.2-.1.4-.735.7-.735C184.838,460.082,188.41,460.85,188.344,461.317Z" transform="translate(-129.534 -460.082)" fill="#b3789f"/>
      <path id="패스_164" data-name="패스 164" d="M239.817,473.272c.434-.134,1.6,2.638.935,2.638l-6.277-.1v6.044a57.268,57.268,0,0,1-.6,9.083,1.631,1.631,0,0,1-1.37.434c-.134-.935-.234-3.84-.234-8.682v-2.137a68.149,68.149,0,0,1-16.3,2.671,2.336,2.336,0,0,1-2.036-2.238v-6.145c0-.367-1.1-.9-1.77-1.135-.033-.2.267-.835.568-.835a16.791,16.791,0,0,1,2.805.3h8.048l.334-6.044h-5.644a5.661,5.661,0,0,0-2.705.668,5.727,5.727,0,0,1-3.072-1.87c-.067-.234.1-.6.234-.568a23.2,23.2,0,0,0,4.976.234h4.241c1.068,0,1.669-.067,2.07-.434.434-.167,2.438.2,2.371.668L225.458,473a3.288,3.288,0,0,1,1.136,1.5c0,.2-.1.334-.3.3-.334-.067-2.471-.1-4.241-.1h-5.91v6.645a83.624,83.624,0,0,0,16.129-2v-16.6c0-.367-2.1-1.536-2.905-1.937-.2-.1.4-.735.7-.735,1.035,0,4.609.768,4.541,1.235a13.818,13.818,0,0,0-.133,1.8v11.654Z" transform="translate(-147.179 -460.082)" fill="#b3789f"/>
    </g>
    <g id="그룹_153" data-name="그룹 153" transform="translate(477.272 3061.87)">
      <path id="패스_165" data-name="패스 165" d="M47.929,501c-.015-.116-.027-.232-.036-.347a6.671,6.671,0,0,1,1.953-5.251l8.58-8.58h0l.347-.347.671-.671v-.024l-.65.649-.407.407L49.821,495.4a6.671,6.671,0,0,0-1.952,5.251c.008.116.021.232.036.347,0,.032.006.065.011.1l.083.6h.024l-.083-.6C47.934,501.067,47.932,501.035,47.929,501Z" transform="translate(-42.176 -467.078)" fill="none"/>
      <path id="패스_166" data-name="패스 166" d="M79.037,458.936c.014.116.027.232.035.347a6.671,6.671,0,0,1-1.952,5.251l-8.581,8.58v0l-.347.347-.67.67v.025l.649-.65.407-.407,8.567-8.567a6.671,6.671,0,0,0,1.953-5.251c-.009-.116-.021-.232-.036-.347,0-.032-.006-.064-.01-.1l-.084-.6h-.024l.083.6C79.031,458.872,79.034,458.9,79.037,458.936Z" transform="translate(-49.151 -457.314)" fill="none"/>
      <path id="패스_167" data-name="패스 167" d="M58.388,473.1l.407.407.65.65v-.025l-.671-.67-.347-.347v0l-8.58-8.58a6.671,6.671,0,0,1-1.953-5.251c.009-.116.021-.232.036-.347,0-.032.006-.064.01-.1l.083-.6H48l-.083.6c0,.032-.007.064-.011.1-.014.116-.027.232-.036.347a6.671,6.671,0,0,0,1.952,5.251Z" transform="translate(-42.176 -457.314)" fill="none"/>
      <path id="패스_168" data-name="패스 168" d="M88.424,465.646v0h0v0c-.112-.015-.224-.029-.34-.037h-.008c-.157-.011-.317-.017-.48-.017h-.01c.159,0,.316.006.47.017h0c.117.008.23.023.343.037h0c.034,0,.069.006.1.011l.593.088v4.7a6.755,6.755,0,0,1-6.747,6.748h.024a6.756,6.756,0,0,0,6.748-6.748v-4.7l-.593-.088C88.493,465.651,88.458,465.65,88.424,465.646Z" transform="translate(-54.408 -459.919)" fill="none"/>
      <path id="패스_169" data-name="패스 169" d="M82.347,485.119a6.756,6.756,0,0,1,6.747,6.749v4.7l-.593.088c-.033.005-.068.007-.1.011h0c-.112.014-.226.028-.343.037h0q-.23.016-.47.017h.01q.244,0,.48-.017h.008c.116-.008.228-.023.34-.037h0v0c.034,0,.069-.006.1-.011l.593-.088v-4.7a6.757,6.757,0,0,0-6.748-6.749Z" transform="translate(-54.408 -466.844)" fill="none"/>
      <path id="패스_170" data-name="패스 170" d="M68.578,486.838l-.407-.407-.649-.649v.024l.67.671.347.347h0l8.581,8.58a6.671,6.671,0,0,1,1.952,5.251c-.008.116-.021.232-.035.347,0,.032-.006.065-.011.1l-.083.6h.024l.084-.6c0-.032.006-.064.01-.1.015-.116.027-.232.036-.347a6.671,6.671,0,0,0-1.953-5.251Z" transform="translate(-49.151 -467.078)" fill="none"/>
      <path id="패스_171" data-name="패스 171" d="M79.037,501.015c.014-.116.027-.232.035-.347a6.671,6.671,0,0,0-1.952-5.251l-8.581-8.58h0l-.347-.347-.67-.671v9.144a6.756,6.756,0,0,0,6.747,6.749h4.675l.083-.6C79.031,501.08,79.034,501.048,79.037,501.015Z" transform="translate(-49.151 -467.091)" fill="#e2b7d7"/>
      <path id="패스_172" data-name="패스 172" d="M83.032,496.7c.117-.009.23-.023.343-.037h0c.034,0,.069-.006.1-.011l.593-.088v-4.7a6.756,6.756,0,0,0-6.747-6.749H68.179l1.042,1.042,8.582,8.582a6.7,6.7,0,0,0,4.758,1.975q.239,0,.47-.017Z" transform="translate(-49.385 -466.844)" fill="#e098c2"/>
      <path id="패스_173" data-name="패스 173" d="M67.521,464.989v9.144l.67-.67.347-.347v0l8.581-8.58a6.671,6.671,0,0,0,1.952-5.251c-.008-.116-.021-.232-.035-.347,0-.032-.006-.064-.011-.1l-.083-.6H74.268A6.755,6.755,0,0,0,67.521,464.989Z" transform="translate(-49.151 -457.314)" fill="#e098c2"/>
      <path id="패스_174" data-name="패스 174" d="M84.071,470.442v-4.7l-.593-.088c-.033-.005-.068-.006-.1-.011h0c-.112-.015-.226-.029-.343-.037h0c-.154-.011-.31-.016-.47-.017a6.7,6.7,0,0,0-4.758,1.975l-8.582,8.582-1.042,1.042h9.145A6.755,6.755,0,0,0,84.071,470.442Z" transform="translate(-49.385 -459.92)" fill="#e2b7d7"/>
      <path id="패스_175" data-name="패스 175" d="M59.458,494.962v-9.144l-.671.671-.347.347h0l-8.58,8.58a6.671,6.671,0,0,0-1.953,5.251c.009.116.021.232.036.347,0,.032.006.065.01.1l.083.6H52.71A6.756,6.756,0,0,0,59.458,494.962Z" transform="translate(-42.19 -467.091)" fill="#e098c2"/>
      <path id="패스_176" data-name="패스 176" d="M55.384,486.161l1.042-1.042H47.282a6.756,6.756,0,0,0-6.748,6.749v4.7l.593.088c.033.005.068.007.1.011h0c.113.014.226.028.343.037h0c.154.011.31.017.469.017a6.7,6.7,0,0,0,4.759-1.975Z" transform="translate(-39.583 -466.844)" fill="#e2b7d7"/>
      <path id="패스_177" data-name="패스 177" d="M47.942,458.936c-.015.116-.027.232-.036.347a6.671,6.671,0,0,0,1.953,5.251l8.58,8.58v0l.347.347.671.67v-9.144a6.756,6.756,0,0,0-6.748-6.748H48.035l-.083.6C47.948,458.872,47.946,458.9,47.942,458.936Z" transform="translate(-42.19 -457.314)" fill="#e2b7d7"/>
      <path id="패스_178" data-name="패스 178" d="M41.573,465.608c-.117.008-.23.023-.343.037h0c-.034,0-.069.006-.1.011l-.593.088v4.7a6.756,6.756,0,0,0,6.748,6.748h9.144l-1.042-1.042L46.8,467.566a6.7,6.7,0,0,0-4.759-1.975c-.159,0-.316.006-.469.017Z" transform="translate(-39.583 -459.92)" fill="#e098c2"/>
      <path id="패스_179" data-name="패스 179" d="M69.554,456.8H64.176a7.669,7.669,0,0,0-7,4.521,5.394,5.394,0,0,0-.3,1.909,5.391,5.391,0,0,0-.3-1.909,7.667,7.667,0,0,0-7-4.521H39.06v10.523a7.67,7.67,0,0,0,4.921,7.164c.075.028.161.059.252.087-.09.028-.177.058-.252.086a7.67,7.67,0,0,0-4.921,7.164V492.35H49.582a7.668,7.668,0,0,0,7-4.521,5.393,5.393,0,0,0,.3-1.909,5.4,5.4,0,0,0,.3,1.909,7.669,7.669,0,0,0,7,4.521H74.7V481.828a7.669,7.669,0,0,0-4.921-7.164c-.075-.028-.161-.059-.251-.086.09-.028.176-.059.251-.087a7.669,7.669,0,0,0,4.921-7.164V456.8Zm-24.8,1.969c.008-.116.021-.232.035-.347,0-.032.006-.064.011-.1l.083-.6h4.7a6.756,6.756,0,0,1,6.748,6.748v9.168l-.65-.65-.407-.407L46.7,464.024A6.671,6.671,0,0,1,44.752,458.773Zm-4.765,8.553v-4.7l.592-.088c.034-.005.069-.006.1-.011v0h0v0c.112-.015.224-.029.339-.037h.008c.157-.011.317-.017.48-.017h.01a6.7,6.7,0,0,1,4.759,1.975l8.582,8.582,1.042,1.042H46.735A6.755,6.755,0,0,1,39.987,467.326Zm1.523,19.353c-.163,0-.322-.006-.48-.017h-.008c-.116-.008-.228-.023-.339-.037h0v0c-.034,0-.069-.006-.1-.011l-.592-.088v-4.7a6.756,6.756,0,0,1,6.747-6.749H55.9l-1.042,1.042L46.28,484.7a6.7,6.7,0,0,1-4.759,1.975Zm3.395,4.744h-.024l-.083-.6c0-.032-.007-.064-.011-.1-.014-.116-.027-.232-.035-.347A6.671,6.671,0,0,1,46.7,485.13l8.567-8.567.407-.407.65-.649v9.168a6.756,6.756,0,0,1-6.748,6.749Zm23.946-33.692h.024l.084.6c0,.032.006.064.01.1.015.116.027.232.036.347a6.671,6.671,0,0,1-1.953,5.251l-8.567,8.567-.407.407-.649.65V464.48a6.755,6.755,0,0,1,6.747-6.748Zm.154,32.649c-.009.116-.021.232-.036.347,0,.032-.006.065-.01.1l-.084.6h-4.7a6.756,6.756,0,0,1-6.747-6.749v-9.168l.649.649.407.407,8.567,8.567A6.671,6.671,0,0,1,69.006,490.381Zm4.765-8.553v4.7l-.593.088c-.033.005-.068.007-.1.011v0h0c-.112.014-.224.028-.34.037h-.008q-.235.017-.48.017h-.01a6.7,6.7,0,0,1-4.758-1.975L58.9,476.122l-1.042-1.042h9.168A6.757,6.757,0,0,1,73.771,481.828Zm0-14.5a6.756,6.756,0,0,1-6.748,6.748H57.854l1.042-1.042,8.582-8.582a6.7,6.7,0,0,1,4.758-1.975h.01c.163,0,.323.006.48.017h.008c.116.008.228.023.34.037v0h0v0c.034,0,.069.006.1.011l.593.088Z" transform="translate(-39.06 -456.804)" fill="#b3789f"/>
    </g>
  </g>
</svg>
