<svg xmlns="http://www.w3.org/2000/svg" width="951.929" height="206.031" viewBox="0 0 951.929 206.031">
  <g id="그룹_188" data-name="그룹 188" transform="translate(-437.272 -3006.17)">
    <g id="그룹_186" data-name="그룹 186" transform="translate(-40 7.784)">
      <g id="그룹_152" data-name="그룹 152" transform="translate(617.432 3068.064)">
        <path id="패스_162" data-name="패스 162" d="M166.544,488.533c0,.391-.293.684-.979.684-.881,0-5.77-.1-9.973-.1H124.6c-1.954,0-3.812,1.075-5.571,1.954-3.13-.684-7.138-4.5-7.531-5.573-.1-.293.295-1.465.686-1.368,1.466.391,6.845.588,12.123.588l30.311-.1c1.563,0,6.452-2.738,7.04-2.738C162.533,481.885,166.544,486.383,166.544,488.533Zm-7.334,24.346c0,9.387-7.724,15.74-19.066,15.74s-19.066-6.354-19.066-15.74c0-8.506,6.845-14.472,17.014-15.156a2.6,2.6,0,0,0,.295-1.172,3.2,3.2,0,0,0-1.665-2.835c0-2.153,6.943,0,6.943,1.073a16.742,16.742,0,0,1-.979,2.933C152.561,498.6,159.209,504.47,159.209,512.88ZM133.691,476.9c-2.935,0-9.094-4.694-9.68-5.28-.195-.2.488-1.956.979-1.858a76.685,76.685,0,0,0,11.927,1.858l12.123.684c.979.1,3.228,4.6,1.368,4.6Zm18.479,36.077c0-6.55-4.889-11.048-12.027-11.048s-12.025,4.5-12.025,11.048c0,6.648,4.889,11.048,12.025,11.048S152.17,519.624,152.17,512.976Zm43.02-11.927c1.27-.295,4.692,7.724,2.738,7.724l-18.675-.293v15.349a167.444,167.444,0,0,1-1.759,26.6,4.777,4.777,0,0,1-4.01,1.27c-.389-2.736-.682-11.242-.682-25.42V467.9c0-1.075-6.161-4.5-8.506-5.671-.588-.293,1.172-2.151,2.052-2.151,3.031,0,13.493,2.249,13.3,3.617a39.764,39.764,0,0,0-.393,5.28v35.786Z" transform="translate(-111.48 -460.082)" fill="#b3789f"/>
        <path id="패스_163" data-name="패스 163" d="M222.039,469.663a40.466,40.466,0,0,0-.389,5.28v44.292a157.39,157.39,0,0,1-1.761,24.638,4.774,4.774,0,0,1-4.008,1.272c-.393-2.738-.686-11.244-.686-23.466v-9.092h-2.638a15.744,15.744,0,0,0-7.724,1.954c-2.249-.586-5.378-3.812-6.257-4.692-3.326,4.6-9.192,7.431-16.525,7.431-11.832,0-19.652-7.138-19.652-17.5,0-9.581,6.843-16.525,17.4-17.4a2.615,2.615,0,0,0,.293-1.174,3.485,3.485,0,0,0-1.661-3.031c0-2.249,7.332,0,7.332,1.174a12.768,12.768,0,0,1-1.075,3.031c10.264,1.075,16.914,7.92,16.914,17.4a17.29,17.29,0,0,1-1.956,8.213c3.13,0,5.77.293,11.636.293h3.91V493.031h-1.467a15.735,15.735,0,0,0-7.722,1.956c-2.445-.586-5.868-4.3-6.456-4.889-.389-.391.2-1.661.491-1.661,3.519,0,6.061.293,12.416.293h2.736V472.5c0-1.077-4.1-3.422-6.452-4.6-.588-.293,1.174-2.151,2.054-2.151C213.826,465.753,222.235,468.3,222.039,469.663Zm-27.085,29.821c0-7.529-5.278-13-13.1-13-7.726,0-12.809,5.475-12.809,13,0,7.724,5.084,13.2,12.613,13.2C189.676,512.683,194.954,507.208,194.954,499.485ZM238.367,463.7a40.435,40.435,0,0,0-.391,5.28v54.85a167.12,167.12,0,0,1-1.761,26.6,4.771,4.771,0,0,1-4.008,1.27c-.389-2.736-.682-11.242-.682-25.42V467.9c0-1.075-6.159-4.5-8.506-5.671-.588-.293,1.174-2.151,2.052-2.151C228.1,460.082,238.561,462.331,238.367,463.7Z" transform="translate(-66.172 -460.082)" fill="#b3789f"/>
        <path id="패스_164" data-name="패스 164" d="M293.13,498.7c1.27-.391,4.692,7.724,2.736,7.724l-18.38-.293v17.7a167.686,167.686,0,0,1-1.759,26.6,4.777,4.777,0,0,1-4.01,1.27c-.391-2.736-.684-11.242-.684-25.42v-6.257c-11.83,3.617-33.731,7.822-47.714,7.822-2.444,0-5.962-2.837-5.962-6.552V503.3c0-1.073-3.228-2.638-5.184-3.322-.1-.588.782-2.445,1.663-2.445a49.163,49.163,0,0,1,8.213.879h23.564l.977-17.7H230.065a16.577,16.577,0,0,0-7.92,1.956c-4.008-.588-8.8-4.692-8.994-5.475-.2-.686.293-1.761.684-1.663,3.521.881,8.017.686,14.569.686h12.418c3.126,0,4.887-.2,6.061-1.272,1.272-.489,7.138.586,6.943,1.956l-2.74,21.02a9.626,9.626,0,0,1,3.326,4.4c0,.588-.293.977-.881.881-.979-.2-7.236-.293-12.418-.293H223.808v19.456c15.742-.391,35.982-2.933,47.225-5.866V467.9c0-1.075-6.159-4.5-8.506-5.671-.588-.293,1.174-2.151,2.052-2.151,3.031,0,13.5,2.249,13.3,3.617a40.463,40.463,0,0,0-.389,5.28V503.1Z" transform="translate(-21.889 -460.082)" fill="#b3789f"/>
      </g>
      <g id="그룹_153" data-name="그룹 153" transform="translate(477.272 3061.87)">
        <path id="패스_165" data-name="패스 165" d="M48.081,530.348c-.043-.338-.079-.678-.106-1.017a19.533,19.533,0,0,1,5.719-15.374l25.123-25.123,0,0,1.017-1.017,1.964-1.963v-.07l-1.9,1.9-1.192,1.193L53.622,513.958a19.532,19.532,0,0,0-5.717,15.374c.025.338.062.678.1,1.017.011.095.019.189.032.282l.244,1.754h.07l-.244-1.754C48.1,530.537,48.092,530.443,48.081,530.348Z" transform="translate(-31.239 -431.02)" fill="none"/>
        <path id="패스_166" data-name="패스 166" d="M101.241,460.274c.042.338.079.678.1,1.017a19.532,19.532,0,0,1-5.717,15.374L70.5,501.788l0,.006-1.017,1.017-1.962,1.962v.072l1.9-1.9,1.192-1.193L95.7,476.665a19.533,19.533,0,0,0,5.719-15.374c-.026-.338-.062-.678-.106-1.017-.011-.094-.017-.187-.03-.282l-.246-1.752h-.07l.244,1.752C101.222,460.087,101.23,460.18,101.241,460.274Z" transform="translate(-13.735 -455.525)" fill="none"/>
        <path id="패스_167" data-name="패스 167" d="M78.706,501.748l1.192,1.193,1.9,1.9v-.072l-1.964-1.962-1.017-1.017,0-.006L53.694,476.665a19.533,19.533,0,0,1-5.719-15.374c.026-.338.062-.678.106-1.017.011-.094.017-.187.03-.282l.244-1.752h-.07l-.244,1.752c-.013.095-.021.187-.032.282-.042.338-.079.678-.1,1.017a19.532,19.532,0,0,0,5.717,15.374Z" transform="translate(-31.239 -455.525)" fill="none"/>
        <path id="패스_168" data-name="패스 168" d="M100.141,465.753v-.006h0v.006c-.329-.043-.656-.085-1-.11l-.025,0c-.459-.032-.928-.051-1.4-.051l-.03,0c.467,0,.926.017,1.376.049l0,0c.342.025.675.066,1,.11h0c.1.013.2.017.3.032l1.735.257V479.8a19.78,19.78,0,0,1-19.756,19.758h.07A19.781,19.781,0,0,0,102.175,479.8V466.042l-1.735-.257C100.344,465.77,100.24,465.766,100.141,465.753Z" transform="translate(-0.543 -448.986)" fill="none"/>
        <path id="패스_169" data-name="패스 169" d="M82.347,485.119a19.781,19.781,0,0,1,19.756,19.76v13.752l-1.735.257c-.1.015-.2.021-.3.032l0,0c-.329.042-.661.083-1,.11h0q-.675.048-1.376.049l.03,0q.714,0,1.4-.051l.025,0c.34-.025.667-.066,1-.108v0h0v-.006c.1-.011.2-.017.3-.032l1.735-.257V504.879a19.783,19.783,0,0,0-19.758-19.76Z" transform="translate(-0.543 -431.609)" fill="none"/>
        <path id="패스_170" data-name="패스 170" d="M70.615,488.875l-1.192-1.193-1.9-1.9v.07l1.962,1.963,1.017,1.017,0,0,25.125,25.123a19.532,19.532,0,0,1,5.717,15.374c-.025.338-.062.678-.1,1.017-.011.095-.019.189-.032.282l-.244,1.754h.07l.246-1.754c.013-.093.019-.187.03-.282.043-.338.079-.678.106-1.017A19.533,19.533,0,0,0,95.7,513.958Z" transform="translate(-13.735 -431.02)" fill="none"/>
        <path id="패스_171" data-name="패스 171" d="M101.241,530.316c.042-.338.079-.679.1-1.017a19.532,19.532,0,0,0-5.717-15.374L70.5,488.8l0,0-1.017-1.017-1.962-1.964v26.773a19.781,19.781,0,0,0,19.756,19.76h13.688l.244-1.754C101.222,530.5,101.23,530.41,101.241,530.316Z" transform="translate(-13.735 -430.987)" fill="#e2b7d7"/>
        <path id="패스_172" data-name="패스 172" d="M111.669,519.032c.342-.026.675-.068,1-.11l0,0c.1-.011.2-.017.3-.032l1.735-.257V504.879a19.781,19.781,0,0,0-19.756-19.76H68.179l3.05,3.052L96.358,513.3a19.608,19.608,0,0,0,13.932,5.783q.7,0,1.376-.049Z" transform="translate(-13.15 -431.609)" fill="#e098c2"/>
        <path id="패스_173" data-name="패스 173" d="M67.521,478v26.773l1.962-1.962,1.017-1.017,0-.006,25.125-25.123a19.532,19.532,0,0,0,5.717-15.374c-.025-.338-.062-.678-.1-1.017-.011-.094-.019-.187-.032-.282l-.244-1.752H87.277A19.78,19.78,0,0,0,67.521,478Z" transform="translate(-13.735 -455.525)" fill="#e098c2"/>
        <path id="패스_174" data-name="패스 174" d="M114.71,479.795V466.041l-1.735-.257c-.1-.015-.2-.019-.3-.032h0c-.329-.043-.661-.085-1-.109l0,0c-.45-.032-.909-.047-1.376-.049a19.608,19.608,0,0,0-13.932,5.783L71.229,496.5l-3.05,3.05H94.954A19.78,19.78,0,0,0,114.71,479.795Z" transform="translate(-13.15 -448.985)" fill="#e2b7d7"/>
        <path id="패스_175" data-name="패스 175" d="M81.768,512.591V485.818L79.8,487.782,78.788,488.8l0,0L53.661,513.925A19.534,19.534,0,0,0,47.942,529.3c.026.338.062.679.106,1.017.011.094.017.189.03.282l.244,1.754H62.01A19.782,19.782,0,0,0,81.768,512.591Z" transform="translate(-31.206 -430.987)" fill="#e098c2"/>
        <path id="패스_176" data-name="패스 176" d="M84.015,488.171l3.05-3.052H60.292a19.782,19.782,0,0,0-19.758,19.76v13.752l1.735.257c.1.015.2.021.3.032l0,0c.331.042.661.083,1.005.11h0c.45.032.909.049,1.374.049A19.609,19.609,0,0,0,58.888,513.3Z" transform="translate(-37.748 -431.609)" fill="#e2b7d7"/>
        <path id="패스_177" data-name="패스 177" d="M48.048,460.274c-.043.338-.079.678-.106,1.017a19.534,19.534,0,0,0,5.719,15.374l25.123,25.123,0,.006L79.8,502.81l1.964,1.962V478A19.78,19.78,0,0,0,62.01,458.241H48.322l-.244,1.752C48.065,460.087,48.059,460.18,48.048,460.274Z" transform="translate(-31.206 -455.525)" fill="#e2b7d7"/>
        <path id="패스_178" data-name="패스 178" d="M43.577,465.642c-.344.025-.675.066-1.005.109h0c-.1.013-.2.017-.3.032l-1.735.257v13.754a19.78,19.78,0,0,0,19.758,19.758H87.065l-3.05-3.05L58.888,471.374a19.609,19.609,0,0,0-13.934-5.783c-.465,0-.924.017-1.374.049Z" transform="translate(-37.748 -448.985)" fill="#e098c2"/>
        <path id="패스_179" data-name="패스 179" d="M128.346,456.8H112.6a22.453,22.453,0,0,0-20.482,13.238,15.793,15.793,0,0,0-.883,5.59,15.783,15.783,0,0,0-.884-5.59A22.449,22.449,0,0,0,69.868,456.8H39.06v30.81a22.458,22.458,0,0,0,14.408,20.975c.219.083.472.172.737.255-.265.081-.518.17-.737.253A22.459,22.459,0,0,0,39.06,530.074v30.808H69.868A22.451,22.451,0,0,0,90.35,547.646a15.791,15.791,0,0,0,.884-5.59,15.8,15.8,0,0,0,.883,5.59A22.455,22.455,0,0,0,112.6,560.882h30.808V530.074A22.456,22.456,0,0,0,129,509.1c-.219-.083-.472-.172-.735-.253.263-.083.516-.172.735-.255a22.455,22.455,0,0,0,14.408-20.975V456.8Zm-72.62,5.766c.025-.338.062-.678.1-1.017.011-.094.019-.187.032-.282l.244-1.752H69.864a19.78,19.78,0,0,1,19.758,19.758v26.845l-1.9-1.9-1.192-1.193L61.443,477.943A19.532,19.532,0,0,1,55.726,462.57ZM41.776,487.614V473.86l1.733-.257c.1-.015.2-.019.3-.032v-.006h0v.006c.327-.043.656-.085.994-.11l.025,0c.461-.032.928-.051,1.4-.051l.03,0A19.61,19.61,0,0,1,60.2,479.193l25.127,25.129,3.05,3.05H61.532A19.78,19.78,0,0,1,41.776,487.614Zm4.46,56.664c-.476,0-.943-.017-1.4-.051l-.025,0c-.338-.025-.667-.066-.994-.108v0h0v-.006c-.1-.011-.2-.017-.3-.032l-1.733-.257V530.074a19.781,19.781,0,0,1,19.756-19.76H88.377l-3.05,3.052L60.2,538.493a19.609,19.609,0,0,1-13.934,5.783Zm9.94,13.89h-.07l-.244-1.754c-.013-.093-.021-.187-.032-.282-.042-.338-.079-.678-.1-1.017a19.532,19.532,0,0,1,5.717-15.374l25.084-25.084,1.192-1.193,1.9-1.9v26.843a19.782,19.782,0,0,1-19.758,19.76ZM126.29,459.52h.07l.246,1.752c.013.095.019.187.03.282.043.338.079.678.106,1.017a19.533,19.533,0,0,1-5.719,15.374L95.94,503.027l-1.192,1.193-1.9,1.9V479.278A19.78,19.78,0,0,1,112.6,459.52Zm.452,95.6c-.026.338-.062.678-.106,1.017-.011.094-.017.189-.03.282l-.246,1.754H112.6a19.781,19.781,0,0,1-19.756-19.76V511.565l1.9,1.9,1.192,1.193,25.084,25.084A19.533,19.533,0,0,1,126.742,555.116Zm13.951-25.042v13.752l-1.735.257c-.1.015-.2.021-.3.032v.006h0v0c-.329.042-.656.083-1,.108l-.025,0q-.689.051-1.4.051l-.03,0a19.608,19.608,0,0,1-13.932-5.783L97.14,513.366l-3.05-3.052h26.845A19.783,19.783,0,0,1,140.692,530.074Zm0-42.46a19.781,19.781,0,0,1-19.758,19.758H94.09l3.05-3.05,25.129-25.129A19.609,19.609,0,0,1,136.2,473.41l.03,0c.476,0,.945.019,1.4.051l.025,0c.34.025.667.066,1,.11v-.006h0v.006c.1.013.2.017.3.032l1.735.257Z" transform="translate(-39.06 -456.804)" fill="#b3789f"/>
      </g>
    </g>
    <g id="그룹_187" data-name="그룹 187">
      <g id="그룹_155" data-name="그룹 155" transform="translate(1158.799 3135.262)">
        <path id="패스_180" data-name="패스 180" d="M402.8,517.446c0,.328-.247.575-.822.575-.74,0-4.842-.084-8.37-.084H367.6c-1.641,0-3.2.9-4.676,1.641-2.626-.573-5.989-3.773-6.32-4.676-.081-.247.247-1.229.577-1.148a67.872,67.872,0,0,0,10.172.491l25.434-.081c1.313,0,5.414-2.3,5.908-2.3C399.434,511.866,402.8,515.639,402.8,517.446Zm-6.157,20.43c0,7.877-6.48,13.209-16,13.209s-16-5.332-16-13.209c0-7.139,5.742-12.143,14.276-12.718a2.171,2.171,0,0,0,.247-.985,2.689,2.689,0,0,0-1.4-2.379c0-1.8,5.826,0,5.826.9a13.91,13.91,0,0,1-.822,2.46C391.066,525.895,396.643,530.818,396.643,537.875Zm-21.412-30.194c-2.463,0-7.63-3.938-8.124-4.43-.163-.165.41-1.641.822-1.56a64.277,64.277,0,0,0,10.009,1.56l10.174.575c.822.081,2.707,3.855,1.147,3.855Zm15.507,30.276c0-5.5-4.1-9.271-10.093-9.271s-10.09,3.773-10.09,9.271c0,5.579,4.1,9.271,10.09,9.271S390.738,543.536,390.738,537.957Zm36.1-10.009c1.066-.247,3.938,6.48,2.3,6.48l-15.67-.244v12.879a140.307,140.307,0,0,1-1.478,22.318,4.008,4.008,0,0,1-3.363,1.066c-.328-2.3-.575-9.434-.575-21.331V500.133c0-.9-5.17-3.773-7.137-4.758-.493-.247.982-1.8,1.722-1.8,2.544,0,11.322,1.885,11.159,3.035a33.561,33.561,0,0,0-.328,4.43v30.029Z" transform="translate(-356.593 -493.571)" fill="#b3789f"/>
        <path id="패스_181" data-name="패스 181" d="M440.346,501.611a34,34,0,0,0-.328,4.432v37.166a132.353,132.353,0,0,1-1.476,20.674,4.014,4.014,0,0,1-3.366,1.068c-.328-2.3-.575-9.436-.575-19.692v-7.63h-2.214a13.207,13.207,0,0,0-6.48,1.641c-1.888-.494-4.513-3.2-5.251-3.938-2.791,3.857-7.714,6.236-13.866,6.236-9.93,0-16.491-5.989-16.491-14.688,0-8.04,5.742-13.866,14.6-14.6a2.2,2.2,0,0,0,.247-.985,2.924,2.924,0,0,0-1.394-2.542c0-1.888,6.152,0,6.152.985a10.657,10.657,0,0,1-.9,2.542c8.612.9,14.192,6.645,14.192,14.6a14.5,14.5,0,0,1-1.641,6.892c2.626,0,4.842.247,9.765.247h3.28v-12.8h-1.229a13.2,13.2,0,0,0-6.48,1.641c-2.053-.491-4.925-3.61-5.417-4.1-.328-.328.165-1.394.412-1.394,2.952,0,5.084.244,10.419.244H434.6V503.99c0-.9-3.445-2.87-5.414-3.857-.491-.244.985-1.8,1.725-1.8C433.454,498.329,440.511,500.461,440.346,501.611Zm-22.727,25.025c0-6.317-4.43-10.914-10.994-10.914-6.48,0-10.747,4.6-10.747,10.914,0,6.48,4.267,11.075,10.581,11.075C413.189,537.71,417.619,533.115,417.619,526.635Zm36.43-30.029a33.529,33.529,0,0,0-.331,4.43v46.027a140.418,140.418,0,0,1-1.476,22.318,4.014,4.014,0,0,1-3.366,1.066c-.326-2.3-.573-9.434-.573-21.331V500.133c0-.9-5.167-3.773-7.137-4.758-.494-.247.985-1.8,1.722-1.8C445.432,493.571,454.212,495.456,454.049,496.606Z" transform="translate(-309.552 -493.571)" fill="#b3789f"/>
        <path id="패스_182" data-name="패스 182" d="M491.184,525.976c1.066-.326,3.936,6.483,2.3,6.483l-15.423-.247v14.85a140.3,140.3,0,0,1-1.478,22.318,4.008,4.008,0,0,1-3.363,1.066c-.328-2.3-.575-9.434-.575-21.331v-5.251c-9.927,3.035-28.3,6.564-40.038,6.564-2.051,0-5-2.379-5-5.5v-15.1c0-.9-2.707-2.214-4.348-2.788-.081-.491.656-2.051,1.394-2.051a41.279,41.279,0,0,1,6.892.738H451.31l.819-14.85H438.263a13.9,13.9,0,0,0-6.645,1.641c-3.363-.494-7.383-3.938-7.546-4.595-.165-.575.245-1.476.573-1.394,2.954.738,6.727.575,12.225.575H447.29c2.623,0,4.1-.165,5.086-1.066,1.069-.412,5.989.491,5.826,1.639l-2.3,17.641a8.071,8.071,0,0,1,2.791,3.692c0,.491-.244.819-.738.738-.822-.165-6.073-.247-10.421-.247H433.012v16.329c13.212-.328,30.194-2.463,39.628-4.923V500.133c0-.9-5.167-3.773-7.137-4.758-.494-.247.985-1.8,1.722-1.8,2.542,0,11.324,1.885,11.159,3.035a33.55,33.55,0,0,0-.328,4.43v28.635Z" transform="translate(-263.574 -493.571)" fill="#b3789f"/>
      </g>
      <g id="그룹_156" data-name="그룹 156" transform="translate(1220.899 3006.17)">
        <path id="패스_183" data-name="패스 183" d="M390.133,511.388c-.046-.359-.084-.721-.11-1.08a20.774,20.774,0,0,1,6.08-16.35l26.718-26.716,0,0,1.08-1.083,2.087-2.086v-.074l-2.022,2.022-1.267,1.267-26.678,26.675a20.78,20.78,0,0,0-6.078,16.35c.026.359.065.721.11,1.08.012.1.019.2.034.3l.259,1.864h.077l-.261-1.864C390.152,511.589,390.145,511.488,390.133,511.388Z" transform="translate(-372.223 -405.758)" fill="none"/>
        <path id="패스_184" data-name="패스 184" d="M442.251,443.052c.046.359.084.721.113,1.08a20.774,20.774,0,0,1-6.08,16.35L409.565,487.2l0,0-1.083,1.083-2.087,2.087v.074l2.022-2.022,1.27-1.267,26.675-26.675a20.773,20.773,0,0,0,6.08-16.35c-.026-.359-.065-.721-.11-1.08-.014-.1-.019-.2-.034-.3l-.261-1.864h-.074l.259,1.864C442.232,442.851,442.239,442.952,442.251,443.052Z" transform="translate(-349.193 -438.002)" fill="none"/>
        <path id="패스_185" data-name="패스 185" d="M422.7,487.158l1.267,1.267,2.022,2.022v-.074l-2.087-2.087-1.08-1.083,0,0L396.1,460.483a20.774,20.774,0,0,1-6.08-16.35c.026-.359.065-.721.11-1.08.012-.1.019-.2.034-.3l.261-1.864h-.077l-.259,1.864c-.014.1-.022.2-.034.3-.045.359-.084.721-.11,1.08a20.78,20.78,0,0,0,6.078,16.35Z" transform="translate(-372.223 -438.002)" fill="none"/>
        <path id="패스_186" data-name="패스 186" d="M437.752,447.225v0h0v0c-.35-.046-.7-.089-1.059-.115l-.026,0q-.733-.054-1.492-.053h-.034c.5,0,.985.019,1.464.053l0,0c.362.026.716.069,1.066.115h0c.105.014.216.019.319.036l1.845.273v14.625a21.037,21.037,0,0,1-21.012,21.012h.074a21.037,21.037,0,0,0,21.012-21.012V447.534l-1.845-.273C437.967,447.244,437.857,447.239,437.752,447.225Z" transform="translate(-331.835 -429.397)" fill="none"/>
        <path id="패스_187" data-name="패스 187" d="M418.829,463.438a21.037,21.037,0,0,1,21.012,21.012v14.625l-1.845.273c-.1.017-.213.022-.319.036h0c-.35.046-.7.089-1.066.117h0c-.479.034-.968.05-1.464.053h.034q.758,0,1.492-.053l.026,0c.359-.026.709-.069,1.059-.115v0h0v0c.105-.014.216-.019.319-.036l1.845-.273V484.45A21.037,21.037,0,0,0,418.9,463.438Z" transform="translate(-331.835 -406.533)" fill="none"/>
        <path id="패스_188" data-name="패스 188" d="M409.683,467.282l-1.27-1.267-2.022-2.022v.074l2.087,2.086,1.083,1.083,0,0,26.718,26.716a20.774,20.774,0,0,1,6.08,16.35c-.029.359-.067.721-.113,1.08-.012.1-.019.2-.033.3l-.259,1.864h.074l.261-1.864c.014-.1.019-.2.034-.3.046-.359.084-.721.11-1.08a20.773,20.773,0,0,0-6.08-16.35Z" transform="translate(-349.193 -405.758)" fill="none"/>
        <path id="패스_189" data-name="패스 189" d="M442.251,511.345c.046-.359.084-.721.113-1.08a20.774,20.774,0,0,0-6.08-16.35L409.565,467.2l0,0-1.083-1.083-2.087-2.087V492.5A21.035,21.035,0,0,0,427.4,513.508h14.556l.259-1.864C442.232,511.546,442.239,511.445,442.251,511.345Z" transform="translate(-349.193 -405.715)" fill="#e2b7d7"/>
        <path id="패스_190" data-name="패스 190" d="M453.194,499.5c.362-.029.716-.072,1.066-.117h0c.106-.014.216-.019.319-.036l1.845-.273V484.45a21.037,21.037,0,0,0-21.012-21.012H406.944l3.244,3.244L436.908,493.4a20.87,20.87,0,0,0,14.817,6.15c.5,0,.985-.019,1.464-.053Z" transform="translate(-348.421 -406.533)" fill="#e098c2"/>
        <path id="패스_191" data-name="패스 191" d="M406.391,461.9v28.472l2.087-2.087,1.083-1.083,0,0,26.718-26.716a20.774,20.774,0,0,0,6.08-16.35c-.029-.359-.067-.721-.113-1.08-.012-.1-.019-.2-.033-.3l-.259-1.864H427.4A21.035,21.035,0,0,0,406.391,461.9Z" transform="translate(-349.193 -438.002)" fill="#e098c2"/>
        <path id="패스_192" data-name="패스 192" d="M456.428,462.159V447.534l-1.845-.273c-.1-.017-.213-.022-.319-.036h0c-.35-.046-.7-.089-1.066-.115l0,0c-.479-.034-.968-.05-1.464-.053a20.871,20.871,0,0,0-14.817,6.15l-26.721,26.723-3.244,3.244h28.472A21.037,21.037,0,0,0,456.428,462.159Z" transform="translate(-348.421 -429.397)" fill="#e2b7d7"/>
        <path id="패스_193" data-name="패스 193" d="M425.95,492.5V464.024l-2.087,2.087-1.08,1.083,0,0L396.06,493.914a20.773,20.773,0,0,0-6.08,16.35c.026.359.065.721.11,1.08.012.1.019.2.034.3l.261,1.864H404.94A21.033,21.033,0,0,0,425.95,492.5Z" transform="translate(-372.18 -405.715)" fill="#e098c2"/>
        <path id="패스_194" data-name="패스 194" d="M429.992,466.682l3.244-3.244H404.762a21.035,21.035,0,0,0-21.01,21.012v14.625l1.845.273c.1.017.213.022.316.036h0c.352.046.7.089,1.068.117h0c.477.034.965.05,1.461.053a20.866,20.866,0,0,0,14.817-6.15Z" transform="translate(-380.789 -406.533)" fill="#e2b7d7"/>
        <path id="패스_195" data-name="패스 195" d="M390.09,443.052c-.046.359-.084.721-.11,1.08a20.774,20.774,0,0,0,6.08,16.35L422.778,487.2l0,0,1.08,1.083,2.087,2.087V461.9a21.033,21.033,0,0,0-21.009-21.012H390.384l-.261,1.864C390.109,442.851,390.1,442.952,390.09,443.052Z" transform="translate(-372.18 -438.002)" fill="#e2b7d7"/>
        <path id="패스_196" data-name="패스 196" d="M386.986,447.11c-.364.026-.716.069-1.068.115h0c-.1.014-.213.019-.316.036l-1.845.273v14.625a21.035,21.035,0,0,0,21.01,21.012h28.474l-3.244-3.244L403.269,453.2a20.866,20.866,0,0,0-14.817-6.15c-.5,0-.985.019-1.461.053Z" transform="translate(-380.789 -429.397)" fill="#e098c2"/>
        <path id="패스_197" data-name="패스 197" d="M477.468,439.684H460.72a23.877,23.877,0,0,0-21.781,14.077A16.762,16.762,0,0,0,438,459.7a16.746,16.746,0,0,0-.942-5.943,23.874,23.874,0,0,0-21.781-14.077H382.515v32.762a23.883,23.883,0,0,0,15.322,22.308c.235.086.5.182.783.271-.28.086-.549.182-.783.268A23.884,23.884,0,0,0,382.515,517.6v32.762h32.762a23.874,23.874,0,0,0,21.781-14.077,16.745,16.745,0,0,0,.942-5.943,16.761,16.761,0,0,0,.939,5.943,23.877,23.877,0,0,0,21.781,14.077h32.762V517.6a23.883,23.883,0,0,0-15.322-22.308c-.232-.086-.5-.182-.783-.268.28-.089.551-.184.783-.271a23.883,23.883,0,0,0,15.322-22.308V439.684Zm-77.228,6.13c.026-.359.065-.721.11-1.08.012-.1.019-.2.034-.3l.259-1.864h14.632a21.033,21.033,0,0,1,21.009,21.012v28.546l-2.022-2.022L433,488.84l-26.678-26.675A20.78,20.78,0,0,1,400.24,445.814ZM385.4,472.446V457.821l1.845-.273c.1-.017.213-.022.319-.036v0h0v0c.347-.046.7-.089,1.059-.115l.026,0q.729-.054,1.492-.053h.031A20.866,20.866,0,0,1,405,463.492l26.723,26.723,3.244,3.244H406.414A21.037,21.037,0,0,1,385.4,472.446Zm4.746,60.259q-.762,0-1.492-.053l-.026,0c-.362-.026-.711-.069-1.059-.115v0h0v0c-.105-.014-.216-.019-.319-.036l-1.845-.273V517.6a21.037,21.037,0,0,1,21.012-21.012h28.549l-3.244,3.244L405,526.556a20.866,20.866,0,0,1-14.817,6.15Zm10.572,14.771h-.077l-.259-1.864c-.014-.1-.022-.2-.034-.3-.045-.359-.084-.721-.11-1.081a20.78,20.78,0,0,1,6.078-16.35L433,501.208l1.267-1.267,2.022-2.022v28.546a21.033,21.033,0,0,1-21.009,21.012ZM475.28,442.571h.074l.261,1.864c.014.1.019.2.034.3.046.359.084.721.11,1.08a20.773,20.773,0,0,1-6.08,16.35L443,488.84l-1.27,1.267-2.022,2.022V463.583a21.035,21.035,0,0,1,21.012-21.012Zm.479,101.663c-.026.359-.065.721-.11,1.081-.014.1-.019.2-.034.3l-.261,1.864h-14.63a21.035,21.035,0,0,1-21.012-21.012V497.919l2.022,2.022,1.27,1.267,26.675,26.675A20.773,20.773,0,0,1,475.76,544.233ZM490.6,517.6v14.625l-1.845.273c-.1.017-.213.022-.319.036v0h0v0c-.35.046-.7.089-1.059.115l-.026,0c-.489.036-.987.053-1.492.053h-.034A20.871,20.871,0,0,1,471,526.556l-26.721-26.723-3.244-3.244h28.546A21.037,21.037,0,0,1,490.6,517.6Zm0-45.155a21.037,21.037,0,0,1-21.012,21.012H441.037l3.244-3.244L471,463.492a20.87,20.87,0,0,1,14.817-6.15h.034c.505,0,1,.017,1.492.053l.026,0c.359.026.709.069,1.059.115v0h0v0c.105.014.216.019.319.036l1.845.273Z" transform="translate(-382.515 -439.684)" fill="#b3789f"/>
      </g>
    </g>
  </g>
</svg>
